<svg xmlns="http://www.w3.org/2000/svg" viewBox="0 0 64 64" width="64" height="64">
  <defs>
    <linearGradient id="bgGradient" x1="12" y1="60" x2="54" y2="8" gradientUnits="userSpaceOnUse">
      <stop offset="0%" stop-color="#1d4ed8" />
      <stop offset="55%" stop-color="#2563eb" />
      <stop offset="100%" stop-color="#38bdf8" />
    </linearGradient>
    <radialGradient id="innerGlow" cx="32" cy="20" r="28" gradientUnits="userSpaceOnUse">
      <stop offset="0%" stop-color="#ffffff" stop-opacity="0.6" />
      <stop offset="100%" stop-color="#ffffff" stop-opacity="0" />
    </radialGradient>
    <filter id="softShadow" x="-20%" y="-20%" width="140%" height="140%">
      <feDropShadow dx="0" dy="3" stdDeviation="2.5" flood-color="#0b1220" flood-opacity="0.35" />
    </filter>
  </defs>
  <g filter="url(#softShadow)">
    <circle cx="32" cy="32" r="27.5" fill="url(#bgGradient)" />
    <circle cx="32" cy="32" r="22" fill="url(#innerGlow)" />
    <circle cx="32" cy="32" r="25.5" fill="none" stroke="rgba(255,255,255,0.24)" stroke-width="1.4" />
    <path d="M23 39c7-3.4 14.5-9.6 16-17.2 1-4.9-2.7-8.8-7.3-8.8-3.6 0-6.7 2.2-8.3 5.4" fill="none" stroke="rgba(255,255,255,0.45)" stroke-width="3" stroke-linecap="round" />
    <path d="M21.5 33.5l7.2 7.4L42.5 24" fill="none" stroke="#ffffff" stroke-width="5" stroke-linecap="round" stroke-linejoin="round" />
    <path d="M34.2 43.8c3.1-1.1 6-3.1 8.4-5.6 2.5-2.6 4.4-5.7 5.4-9.1" fill="none" stroke="rgba(255,255,255,0.32)" stroke-width="3" stroke-linecap="round" />
  </g>
</svg>
